HIERARCHY
ROOT root
{
	OFFSET	0	13.1	24.9
	CHANNELS 6  Xposition Yposition Zposition Xrotation Yrotation Zrotation
	JOINT spine_1
	{
		OFFSET	0	9.99999	0
		CHANNELS 3  Xrotation Yrotation Zrotation
		JOINT spine_2
		{
			OFFSET	0	112	-10
			CHANNELS 3  Xrotation Yrotation Zrotation
			JOINT spine_3
			{
				OFFSET	0	206.5	19.3
				CHANNELS 3  Xrotation Yrotation Zrotation
				JOINT spine_4
				{
					OFFSET	0	110.4	14.6
					CHANNELS 3  Xrotation Yrotation Zrotation
					JOINT neck_1
					{
						OFFSET	0	71.8	-50.3
						CHANNELS 3  Xrotation Yrotation Zrotation
						JOINT neck_2
						{
							OFFSET	0	86.2	-25.8
							CHANNELS 3  Xrotation Yrotation Zrotation
							JOINT head_ee
							{
								OFFSET	0	179.8	-8.7
								CHANNELS 3  Xrotation Yrotation Zrotation
								End Site
								{
									OFFSET	1	0	0
								}
							}
						}
					}
					JOINT left_clavicle
					{
						OFFSET	-43.2	22.4	-70.8
						CHANNELS 3  Xrotation Yrotation Zrotation
						JOINT left_shoulder
						{
							OFFSET	-93.9	-5.79999	48.7
							CHANNELS 3  Xrotation Yrotation Zrotation
							JOINT left_elbow
							{
								OFFSET	-291.4	-30.8	15.2
								CHANNELS 3  Xrotation Yrotation Zrotation
								JOINT left_lowarm_twist
								{
									OFFSET	-110.7	-3.89999	13.6
									CHANNELS 3  Xrotation Yrotation Zrotation
									JOINT left_hand
									{
										OFFSET	-110.7	-3.89999	13.6
										CHANNELS 3  Xrotation Yrotation Zrotation
										JOINT left_ee
										{
											OFFSET	-80.8	-5.10001	12.1
											CHANNELS 3  Xrotation Yrotation Zrotation
											End Site
											{
												OFFSET	1	0	0
											}
										}
									}
								}
							}
						}
					}
					JOINT right_clavicle
					{
						OFFSET	43.2	22.4	-70.8
						CHANNELS 3  Xrotation Yrotation Zrotation
						JOINT right_shoulder
						{
							OFFSET	93.9	-5.79999	48.7
							CHANNELS 3  Xrotation Yrotation Zrotation
							JOINT right_elbow
							{
								OFFSET	291.4	-30.8	15.2
								CHANNELS 3  Xrotation Yrotation Zrotation
								JOINT right_lowarm_twist
								{
									OFFSET	110.7	-3.89999	13.6
									CHANNELS 3  Xrotation Yrotation Zrotation
									JOINT right_hand
									{
										OFFSET	110.7	-3.89999	13.6
										CHANNELS 3  Xrotation Yrotation Zrotation
										JOINT right_ee
										{
											OFFSET	80.8	-5.10001	12.1
											CHANNELS 3  Xrotation Yrotation Zrotation
											End Site
											{
												OFFSET	1	0	0
											}
										}
									}
								}
							}
						}
					}
				}
			}
		}
	}
	JOINT left_hip
	{
		OFFSET	-82.8	-127.5	0.300001
		CHANNELS 3  Xrotation Yrotation Zrotation
		JOINT left_knee
		{
			OFFSET	-28.2	-396.7	2.2
			CHANNELS 3  Xrotation Yrotation Zrotation
			JOINT left_ankle
			{
				OFFSET	-11.7	-411.3	35.4
				CHANNELS 3  Xrotation Yrotation Zrotation
				JOINT left_toes
				{
					OFFSET	0	-60	-88.6
					CHANNELS 3  Xrotation Yrotation Zrotation
					JOINT left_foot_ee
					{
						OFFSET	-22.5	-16.5	-42.2
						CHANNELS 3  Xrotation Yrotation Zrotation
						End Site
						{
							OFFSET	1	0	0
						}
					}
				}
			}
		}
	}
	JOINT right_hip
	{
		OFFSET	82.8	-127.5	0.300001
		CHANNELS 3  Xrotation Yrotation Zrotation
		JOINT right_knee
		{
			OFFSET	28.2	-396.7	2.2
			CHANNELS 3  Xrotation Yrotation Zrotation
			JOINT right_ankle
			{
				OFFSET	11.7	-411.3	35.4
				CHANNELS 3  Xrotation Yrotation Zrotation
				JOINT right_toes
				{
					OFFSET	0	-60	-88.6
					CHANNELS 3  Xrotation Yrotation Zrotation
					JOINT right_foot_ee
					{
						OFFSET	22.5	-16.5	-42.2
						CHANNELS 3  Xrotation Yrotation Zrotation
						End Site
						{
							OFFSET	1	0	0
						}
					}
				}
			}
		}
	}
}
MOTION
Frames: 5
Frame Time: 0.02
2833.32 701.442 -672.981 -166.629 -89.2036 -169.077 2.61251 -0.0624215 0.0348571 2.61251 -0.0645131 0.0308144 2.61248 -0.0687211 0.0197198 2.61248 -0.0647443 0.0303256 -15.6882 8.35632 1.49545 -15.9007 15.1396 4.31062 -0.0 0.0 -0.0 9.2105 5.32821 17.7621 -11.8701 -29.0434 41.6443 3.89578 -62.5906 2.36881 0.0866032 0.00304355 -0.0106415 -2.74042 11.387 -12.8193 -0.0 0.0 -0.0 3.44549 2.33845 -6.4984 -33.0683 21.5019 -67.9406 0.615972 16.9689 -0.0918874 -24.8611 1.50311 -2.77565 1.37474 -1.11419 -9.66993 0.0 0.0 0.0 -6.23853 -2.55313 5.21182 -24.2612 0.220769 3.68881 39.4546 17.5635 -4.92669 -7.08909 0.0 0.0 -0.0 0.0 -0.0 32.4779 30.6859 2.46064 -10.2335 -0.284207 -1.54272 -13.1 -16.5269 -1.97851 -15.4105 0.0 0.0 0.0 0.0 0.0 
2851.01 700.545 -673.022 -60.0576 -89.5887 -63.2039 2.57206 -0.192798 0.103271 2.57204 -0.198979 0.0907936 2.57173 -0.211296 0.0564821 2.57178 -0.199723 0.0891436 -15.1809 8.40448 1.65239 -15.3778 15.1087 4.40341 -0.0 0.0 -0.0 9.0574 5.58495 17.4484 -13.3053 -28.3521 42.5481 3.91595 -62.7112 2.38673 0.259425 0.00906832 -0.0318911 -2.68353 11.327 -12.4794 -0.0 0.0 -0.0 3.59478 2.34789 -6.79238 -32.6035 21.5936 -68.2022 0.634417 17.4466 -0.0973443 -24.9202 1.50806 -2.78138 1.45397 -0.927528 -10.1315 0.0 0.0 0.0 -6.89386 -2.58415 4.90147 -24.7918 0.208071 3.76924 38.9725 17.6031 -4.88275 -7.07018 0.0 0.0 -0.0 0.0 -0.0 31.5099 30.8425 3.00263 -11.4989 -0.300075 -1.73623 -14.47 -16.1987 -2.18658 -15.4777 0.0 0.0 0.0 0.0 0.0 
2870.16 702.551 -665.917 -24.4775 -88.9842 -27.5694 2.53813 -0.283039 0.12993 2.53809 -0.290733 0.111656 2.53753 -0.305278 0.0616321 2.53764 -0.291713 0.109072 -14.73 8.43884 1.73482 -14.9142 15.0956 4.42983 -0.0 0.0 -0.0 8.94491 5.89925 17.2111 -14.9958 -27.6853 43.2391 3.87984 -62.4946 2.35467 0.382766 0.0133293 -0.0470673 -2.64513 11.3107 -12.2374 -0.0 0.0 -0.0 3.70019 2.37806 -6.99868 -32.0627 21.6928 -68.354 0.65185 17.8957 -0.102636 -24.9615 1.51153 -2.78538 1.51035 -0.784812 -10.4567 0.0 0.0 0.0 -7.81305 -2.61996 4.72249 -25.4022 0.19254 3.86163 38.6014 17.6604 -4.84909 -7.06102 0.0 0.0 -0.0 0.0 -0.0 30.8391 30.9888 3.35819 -12.6237 -0.31059 -1.90848 -15.4291 -15.9652 -2.33216 -15.535 0.0 0.0 0.0 0.0 0.0 
2891.34 713.169 -656.531 -1.42251 -88.2892 -4.76242 2.51351 -0.244768 0.359389 2.51354 -0.267141 0.343086 2.51192 -0.320726 0.29361 2.5119 -0.270331 0.340578 -14.3061 8.44945 1.73226 -14.4794 15.0881 4.37242 -0.0 0.0 -0.0 8.69763 6.28629 16.7128 -17.2669 -26.839 43.7168 3.78103 -61.8856 2.26726 0.482968 0.0167664 -0.0594033 -2.61219 11.3126 -12.0219 -0.0 0.0 -0.0 3.7635 2.60438 -7.11031 -31.3832 21.8285 -68.2595 0.664353 18.2165 -0.106511 -24.9858 1.51358 -2.78773 1.55033 -0.664822 -10.68 0.0 0.0 0.0 -8.36482 -2.65008 4.60549 -25.892 0.179367 3.93563 38.2252 17.7332 -4.81493 -7.0864 0.0 0.0 -0.0 0.0 -0.0 30.4004 30.9871 3.40417 -13.922 -0.318521 -2.10752 -16.0965 -15.6927 -2.43282 -15.5777 0.0 0.0 0.0 0.0 0.0 
2912.91 729.442 -646.635 -0.900272 -87.2766 -4.27557 2.53691 -0.151097 0.483479 2.53702 -0.181556 0.472885 2.53548 -0.257861 0.435994 2.53527 -0.185769 0.471246 -13.0238 8.41839 1.38488 -13.1692 15.1518 3.85887 -0.0 0.0 -0.0 8.09468 6.94016 15.5333 -21.1572 -25.4645 44.5723 3.62127 -60.8468 2.12704 0.685498 0.0236482 -0.0843547 -2.56461 11.3143 -11.7114 -0.0 0.0 -0.0 4.2253 2.80593 -8.01459 -29.9626 22.1457 -68.578 0.671918 18.41 -0.108889 -24.9712 1.51235 -2.78632 1.56937 -0.733748 -10.8369 0.0 0.0 0.0 -7.6364 -2.52512 4.51974 -25.965 0.17735 3.94665 37.9598 17.9643 -4.79398 -7.26293 0.0 0.0 -0.0 0.0 -0.0 28.447 30.823 3.38664 -15.1801 -0.321901 -2.30052 -16.4767 -14.8535 -2.48677 -15.4006 0.0 0.0 0.0 0.0 0.0 
